<?xml version="1.0" encoding="utf-8"?>
<!-- Generator: Adobe Illustrator 22.1.0, SVG Export Plug-In . SVG Version: 6.00 Build 0)  -->
<svg version="1.1" xmlns="http://www.w3.org/2000/svg" xmlns:xlink="http://www.w3.org/1999/xlink" x="0px" y="0px"
	 viewBox="0 0 250 200" style="enable-background:new 0 0 250 200;" xml:space="preserve">
<style type="text/css">
	.st0{display:none;}
	.st1{display:inline;}
	.st2{fill:#E5E2D9;stroke:#E5E2D9;stroke-width:1.2;stroke-linecap:round;stroke-linejoin:round;stroke-miterlimit:10;}
	.st3{fill:none;stroke:#E5E2D9;stroke-width:1.2;stroke-linecap:round;stroke-linejoin:round;}
	.st4{enable-background:new    ;}
	.st5{fill:#E5E2D9;}
</style>
<g id="Layer_2" class="st0">
	<rect y="12.5" class="st1" width="250" height="175"/>
</g>
<g id="Calque_1">
	<title>logo</title>
	<polygon class="st2" points="109.2,38.5 123.5,15.3 138.3,38.4 129.1,34.1 121.6,36.9 118.8,29.4 	"/>
	<line class="st3" x1="233.5" y1="174.5" x2="203" y2="127.5"/>
	<line class="st3" x1="46.5" y1="127.5" x2="16.5" y2="175.5"/>
	<polyline class="st3" points="164.2,67.5 123.5,4.5 84,67.5 	"/>
	<g class="st4">
		<path class="st5" d="M59.9,79.6c0.9,0.9,1.4,2.2,1.4,3.9c0,1.7-0.5,3.1-1.4,4c-0.9,0.9-2.2,1.4-3.9,1.4h-3.3V78.2H56
			C57.7,78.2,59,78.7,59.9,79.6z M59.3,86.9c0.8-0.8,1.1-1.9,1.1-3.4c0-1.4-0.4-2.5-1.1-3.3S57.5,79,56.1,79h-2.6v9.1h2.6
			C57.5,88.1,58.6,87.7,59.3,86.9z"/>
		<path class="st5" d="M76.4,78.7c0.7,0.4,1.3,1.1,1.7,1.9s0.6,1.8,0.6,2.9s-0.2,2.1-0.6,2.9c-0.4,0.8-1,1.4-1.7,1.9
			S74.8,89,73.8,89s-1.9-0.2-2.6-0.7c-0.7-0.4-1.3-1.1-1.7-1.9c-0.4-0.8-0.6-1.8-0.6-2.9s0.2-2.1,0.6-2.9s1-1.4,1.7-1.9
			c0.7-0.4,1.6-0.7,2.6-0.7S75.6,78.3,76.4,78.7z M71.6,79.4c-0.6,0.4-1.1,0.9-1.4,1.6c-0.3,0.7-0.5,1.5-0.5,2.5s0.2,1.8,0.5,2.5
			c0.3,0.7,0.8,1.3,1.4,1.6c0.6,0.4,1.3,0.6,2.1,0.6s1.5-0.2,2.1-0.6c0.6-0.4,1.1-0.9,1.4-1.6c0.3-0.7,0.5-1.5,0.5-2.5
			s-0.2-1.8-0.5-2.5c-0.3-0.7-0.8-1.3-1.4-1.6s-1.3-0.6-2.1-0.6S72.2,79,71.6,79.4z"/>
		<path class="st5" d="M95,88.8h-1l-5.6-8.3l-0.8-1.4h0l0,1.3v8.4h-0.8V78.2h1l5.6,8.3l0.8,1.4l0-1.3v-8.4H95V88.8z"/>
		<path class="st5" d="M112,88.8h-1l-5.6-8.3l-0.8-1.4h0l0,1.3v8.4h-0.8V78.2h1l5.6,8.3l0.8,1.4l0-1.3v-8.4h0.8V88.8z"/>
		<path class="st5" d="M128.4,88.1v0.7H121V78.2h7.2V79h-6.4V83h5.1v0.8h-5.1v4.3H128.4z M124.8,76.9h-0.7l1.1-2.4h0.9L124.8,76.9z"
			/>
		<path class="st5" d="M143.8,88.1v0.7h-7.5V78.2h7.2V79h-6.4V83h5.1v0.8h-5.1v4.3H143.8z"/>
		<path class="st5" d="M159,80.4l-0.7,0.6c-0.3-0.8-0.7-1.3-1.2-1.6c-0.5-0.3-1.2-0.5-2.1-0.5c-0.6,0-1.2,0.1-1.6,0.3
			c-0.5,0.2-0.8,0.5-1,0.8c-0.2,0.3-0.4,0.7-0.4,1.1c0,0.4,0.1,0.7,0.3,1s0.5,0.5,1,0.7s1.2,0.4,2,0.5c1.4,0.2,2.4,0.6,2.9,1
			c0.6,0.4,0.9,1.1,0.9,1.9c0,0.6-0.2,1.1-0.5,1.5c-0.3,0.4-0.8,0.8-1.4,1c-0.6,0.2-1.3,0.4-2.1,0.4c-1.1,0-2-0.2-2.8-0.7
			s-1.3-1.1-1.6-1.9l0.7-0.5c0.2,0.8,0.6,1.3,1.3,1.7c0.6,0.4,1.4,0.6,2.4,0.6c0.9,0,1.7-0.2,2.2-0.6s0.9-0.9,0.9-1.5
			c0-0.6-0.2-1-0.7-1.3c-0.5-0.3-1.3-0.6-2.5-0.8c-1-0.2-1.8-0.4-2.4-0.6c-0.6-0.2-1-0.5-1.2-0.9c-0.3-0.4-0.4-0.8-0.4-1.4
			s0.2-1,0.5-1.5s0.8-0.8,1.3-1.1c0.6-0.3,1.3-0.4,2-0.4C157,78.1,158.3,78.8,159,80.4z"/>
	</g>
	<g class="st4">
		<path class="st5" d="M180.7,88.1v0.6h-6.5v-9.2h6.3v0.6h-5.6v3.6h4.4v0.7h-4.4v3.7H180.7z"/>
		<path class="st5" d="M191.2,88.8h-0.9l-4.9-7.3l-0.7-1.2h0l0,1.2v7.3h-0.7v-9.2h0.9l4.9,7.2l0.7,1.2l0-1.2v-7.3h0.7V88.8z"/>
	</g>
	<g class="st4">
		<path class="st5" d="M52.1,115.5c-1.1,0.7-2.3,1.1-3.8,1.1c-1.4,0-2.6-0.3-3.6-1c-1-0.6-1.8-1.5-2.4-2.7s-0.9-2.6-0.9-4.1
			s0.3-3,0.9-4.1c0.6-1.2,1.4-2.1,2.4-2.7c1-0.6,2.2-1,3.6-1c3,0,5,1.2,5.9,3.7l-1.1,0.5c-0.4-1.1-0.9-1.9-1.7-2.4
			c-0.8-0.5-1.8-0.8-3-0.8c-1.1,0-2.1,0.3-3,0.8c-0.9,0.5-1.5,1.3-2,2.3c-0.5,1-0.7,2.2-0.7,3.6s0.2,2.6,0.7,3.6
			c0.5,1,1.1,1.8,2,2.3c0.9,0.5,1.9,0.8,3,0.8c1.2,0,2.3-0.3,3.1-0.9c0.9-0.6,1.5-1.4,1.8-2.6l1.1,0.4
			C54,113.8,53.2,114.8,52.1,115.5z"/>
		<path class="st5" d="M82,101.9c1.1,0.6,1.9,1.5,2.4,2.7c0.6,1.2,0.9,2.6,0.9,4.2s-0.3,3-0.9,4.2c-0.6,1.2-1.4,2.1-2.4,2.7
			c-1.1,0.6-2.3,1-3.7,1c-1.4,0-2.7-0.3-3.7-1c-1.1-0.6-1.9-1.5-2.4-2.7s-0.9-2.6-0.9-4.2s0.3-3,0.9-4.2c0.6-1.2,1.4-2.1,2.4-2.7
			c1-0.6,2.3-1,3.7-1C79.7,101,80.9,101.3,82,101.9z M75.2,102.9c-0.9,0.5-1.5,1.3-2,2.3c-0.5,1-0.7,2.2-0.7,3.6s0.2,2.6,0.7,3.6
			c0.5,1,1.1,1.8,2,2.3c0.9,0.5,1.9,0.8,3.1,0.8s2.2-0.3,3.1-0.8c0.9-0.5,1.5-1.3,2-2.3c0.5-1,0.7-2.2,0.7-3.6s-0.2-2.6-0.7-3.6
			c-0.5-1-1.1-1.8-2-2.3c-0.9-0.5-1.9-0.8-3.1-0.8S76.1,102.3,75.2,102.9z"/>
		<path class="st5" d="M113.6,116.4l-4.3-6.6h-0.1h-4.5v6.6h-1.1v-15.2h5.6c1.5,0,2.7,0.4,3.6,1.1c0.9,0.8,1.3,1.8,1.3,3.2
			c0,1.1-0.3,2-1,2.7c-0.6,0.7-1.5,1.2-2.6,1.4l4.4,6.7H113.6z M104.7,108.7h4.5c1.2,0,2.2-0.3,2.8-0.8c0.7-0.6,1-1.3,1-2.4
			c0-1-0.3-1.8-1-2.4s-1.6-0.8-2.8-0.8h-4.5V108.7z"/>
		<path class="st5" d="M143.2,103.1c1.3,1.3,2,3.1,2,5.6c0,2.5-0.7,4.4-2,5.7c-1.3,1.3-3.2,2-5.6,2h-4.8v-15.2h4.8
			C140,101.2,141.9,101.9,143.2,103.1z M142.3,113.6c1.1-1.1,1.6-2.8,1.6-4.9c0-2.1-0.5-3.6-1.6-4.7c-1.1-1.1-2.6-1.7-4.7-1.7h-3.7
			v13.1h3.7C139.7,115.3,141.2,114.8,142.3,113.6z"/>
		<path class="st5" d="M174.2,115.3v1.1h-10.7v-15.2h10.4v1.1h-9.2v5.9h7.3v1.1h-7.3v6.1H174.2z M169,99.3h-1l1.5-3.4h1.3L169,99.3z
			"/>
		<path class="st5" d="M202.8,115.3v1.1H192v-15.2h10.4v1.1h-9.2v5.9h7.3v1.1h-7.3v6.1H202.8z"/>
	</g>
	<line class="st3" x1="247" y1="149" x2="153.5" y2="149"/>
	<line class="st3" x1="89.5" y1="149" x2="3" y2="149"/>
	<g class="st4">
		<path class="st5" d="M115.1,135.7c0,0.1,0.1,0.2,0.1,0.3s0,0.3,0,0.5c0,0.5-0.1,1-0.2,1.6s-0.3,1.2-0.6,1.9s-0.6,1.4-0.9,2.1
			s-0.8,1.5-1.2,2.2s-0.9,1.5-1.4,2.2s-1,1.4-1.6,2.1c0.3,0.4,0.7,0.8,1.1,1.1s0.8,0.7,1.2,0.9c-0.3,0.2-0.5,0.3-0.7,0.5
			c-0.3-0.1-0.7-0.3-1-0.6s-0.8-0.6-1.2-1c-0.9,1.1-1.8,2-2.7,2.8s-1.8,1.4-2.7,1.7c-0.1,0-0.2,0.1-0.4,0.1s-0.4,0.1-0.7,0.1
			c-0.2,0-0.4-0.1-0.7-0.2s-0.5-0.4-0.7-0.6s-0.4-0.5-0.6-0.7s-0.3-0.4-0.4-0.5c-0.1-0.1-0.2-0.3-0.2-0.6s-0.1-0.5-0.1-0.8
			c0-0.4,0-0.8,0.1-1.2s0.2-0.9,0.5-1.4c0.1,0,0.3-0.1,0.5-0.2s0.5-0.2,0.8-0.2s0.6-0.2,0.8-0.2s0.5-0.1,0.7-0.2
			c-0.2,0.4-0.5,0.7-0.7,1s-0.4,0.6-0.5,1s-0.3,0.7-0.3,1s-0.1,0.7-0.1,1.1c0,0.2,0,0.3,0.1,0.5s0.2,0.2,0.3,0.2
			c0.2,0,0.5-0.1,0.9-0.4s0.8-0.6,1.2-1s0.9-0.9,1.4-1.5s1-1.2,1.6-1.9c-0.3-0.4-0.6-0.9-0.8-1.3s-0.5-1-0.7-1.5s-0.3-1-0.4-1.6
			s-0.2-1.1-0.2-1.7c0-0.8,0.1-1.6,0.4-2.3s0.6-1.3,1-1.9s0.9-1.1,1.5-1.5s1.1-0.8,1.7-1.1s1.2-0.5,1.8-0.7s1.1-0.2,1.6-0.2
			c0.3,0,0.5,0.1,0.6,0.2c0.1,0.1,0.3,0.2,0.5,0.4s0.4,0.4,0.5,0.6s0.3,0.4,0.5,0.6S115,135.6,115.1,135.7z M106.8,142.6
			c0,0.5,0.1,1.1,0.2,1.7s0.4,1.2,0.7,1.8c0.5-0.6,0.9-1.3,1.4-2s0.9-1.4,1.3-2s0.8-1.3,1.1-2s0.6-1.3,0.9-1.9s0.4-1.1,0.6-1.6
			s0.2-0.9,0.2-1.3c0-0.1,0-0.2-0.1-0.2s-0.1,0-0.2,0c-0.1,0-0.3,0.1-0.7,0.2s-0.7,0.3-1.2,0.6s-0.9,0.6-1.4,1s-1,0.9-1.4,1.5
			s-0.8,1.2-1,1.9S106.8,141.7,106.8,142.6z"/>
	</g>
	<g class="st4">
		<path class="st5" d="M112.9,148.1c0.2-0.2,0.5-0.5,0.7-0.7s0.4-0.5,0.6-0.8s0.4-0.6,0.5-1c0-0.2,0.1-0.4,0.1-0.6s0.1-0.4,0.2-0.5
			s0.2-0.3,0.2-0.4s0.1-0.2,0.2-0.2c0.1,0.1,0.2,0.2,0.4,0.3s0.4,0.3,0.6,0.5s0.4,0.3,0.5,0.5s0.2,0.2,0.2,0.3
			c-0.1,0.4-0.1,0.7-0.1,1s0,0.6,0.1,0.9s0.1,0.6,0.1,0.9s0.1,0.7,0.1,1.1c0,0.2,0,0.5-0.1,0.9s-0.2,0.6-0.4,0.9
			c0.4-0.2,0.8-0.5,1.2-0.8s0.7-0.6,1-0.8c0.4-0.3,0.7-0.6,1-0.9l0.5,0.6c-0.3,0.2-0.5,0.5-0.8,0.8s-0.6,0.5-0.9,0.8s-0.7,0.5-1,0.8
			s-0.7,0.5-1,0.6s-0.6,0.3-0.9,0.4s-0.6,0.2-0.9,0.2c-0.2,0-0.5-0.1-0.8-0.2s-0.5-0.2-0.8-0.4s-0.5-0.3-0.6-0.5s-0.3-0.3-0.3-0.4
			c0,0,0,0,0-0.1s0.1-0.1,0.1-0.2s0.1-0.1,0.1-0.1s0.1-0.1,0.1-0.1c0,0,0.1,0,0.3,0.1s0.4,0.1,0.7,0.1c0.2,0,0.3,0,0.5-0.1
			s0.2-0.2,0.3-0.4s0.1-0.3,0.2-0.5s0.1-0.4,0.1-0.6c0-0.3,0-0.6,0-1s-0.1-0.6-0.1-0.9c-0.1,0.2-0.3,0.3-0.5,0.5s-0.3,0.3-0.5,0.5
			s-0.4,0.3-0.5,0.5s-0.3,0.3-0.5,0.4l-0.6-0.6C112.5,148.5,112.7,148.3,112.9,148.1z"/>
		<path class="st5" d="M128.2,149c-0.7,0.7-1.4,1.3-2,1.8s-1.2,0.9-1.8,1.1s-1.1,0.5-1.7,0.6s-1,0.2-1.5,0.2c-0.2,0-0.4-0.1-0.7-0.2
			s-0.5-0.3-0.7-0.6s-0.4-0.5-0.6-0.7s-0.2-0.4-0.2-0.6c0-0.6,0.1-1.2,0.3-1.8s0.4-1,0.7-1.4s0.6-0.8,1-1.1s0.8-0.6,1.2-0.8
			s0.8-0.4,1.2-0.5s0.8-0.2,1.1-0.2c0.2,0,0.5,0.1,0.7,0.2s0.5,0.3,0.7,0.5s0.4,0.4,0.5,0.6s0.2,0.4,0.2,0.6c0,0.3-0.1,0.5-0.3,0.8
			s-0.5,0.6-0.9,0.8s-0.9,0.6-1.5,0.9s-1.2,0.6-1.9,0.9c0,0.2,0,0.4,0,0.6c0,0.2,0.1,0.4,0.2,0.5s0.3,0.1,0.6,0.1
			c0.5,0,1-0.1,1.5-0.3s0.9-0.4,1.3-0.7s0.8-0.6,1.2-0.9s0.8-0.7,1.2-1.1L128.2,149z M124.1,146.1c-0.2,0-0.3,0.1-0.5,0.3
			s-0.4,0.4-0.6,0.7s-0.4,0.6-0.5,0.9s-0.3,0.7-0.4,1.1c0.3-0.2,0.6-0.4,0.8-0.6s0.5-0.4,0.7-0.7s0.4-0.5,0.5-0.7s0.2-0.5,0.2-0.7
			c0-0.1,0-0.1-0.1-0.2S124.2,146.1,124.1,146.1z M125.3,143.7c-0.2,0-0.3,0.1-0.6,0.2c-0.1-0.2-0.2-0.4-0.4-0.7s-0.3-0.5-0.4-0.8
			s-0.3-0.6-0.5-1s-0.3-0.7-0.4-1c0.4-0.1,0.8-0.3,1.1-0.3s0.6-0.1,0.7-0.2l1,3.7C125.6,143.6,125.4,143.7,125.3,143.7z"/>
		<path class="st5" d="M132.9,147c-0.1,0.3-0.2,0.7-0.4,1s-0.3,0.8-0.4,1.1s-0.3,0.7-0.4,1s-0.1,0.5-0.1,0.7c0,0,0,0.1,0.1,0.1
			c0.1,0,0.2-0.1,0.4-0.2s0.4-0.2,0.6-0.4s0.5-0.3,0.7-0.5s0.5-0.4,0.7-0.6s0.4-0.4,0.6-0.5s0.3-0.3,0.4-0.4
			c0.1,0.1,0.2,0.2,0.3,0.3s0.2,0.2,0.3,0.3c-0.2,0.2-0.4,0.4-0.6,0.6s-0.5,0.5-0.8,0.8s-0.6,0.5-0.9,0.8s-0.6,0.5-0.9,0.7
			s-0.6,0.4-0.9,0.5s-0.5,0.2-0.7,0.2c-0.1,0-0.3,0-0.4-0.1s-0.4-0.2-0.5-0.3s-0.3-0.3-0.4-0.4s-0.2-0.3-0.2-0.4
			c0.1-0.5,0.2-1,0.4-1.4s0.2-0.7,0.3-1s0.2-0.5,0.3-0.7s0.1-0.3,0.2-0.4c-0.1,0-0.2-0.1-0.3-0.1s-0.2-0.1-0.3-0.1
			c-0.1,0.1-0.3,0.3-0.4,0.4s-0.3,0.3-0.5,0.4s-0.3,0.3-0.5,0.4s-0.3,0.3-0.4,0.4l-0.6-0.6c0.2-0.2,0.4-0.4,0.7-0.7s0.6-0.6,0.8-0.8
			c-0.2-0.1-0.4-0.2-0.5-0.3s-0.3-0.2-0.4-0.3c-0.1-0.1-0.2-0.2-0.4-0.3c0,0-0.1-0.1-0.1-0.2c0-0.1,0-0.2,0.1-0.4s0.2-0.3,0.3-0.5
			s0.2-0.4,0.3-0.6s0.2-0.4,0.3-0.5s0.2-0.3,0.3-0.4s0.1-0.1,0.2-0.1c0,0,0.1,0,0.2,0.1s0.2,0.1,0.3,0.1s0.2,0.1,0.3,0.2
			s0.1,0.1,0.2,0.2c0,0,0,0.1,0,0.2s0,0.3,0,0.5c0.3,0.2,0.6,0.3,0.9,0.5s0.6,0.4,0.9,0.6c0.3,0.2,0.6,0.4,0.9,0.6
			c0.1,0.1,0.2,0.1,0.2,0.2S133,147,132.9,147z"/>
		<path class="st5" d="M143.2,149c-0.7,0.7-1.4,1.3-2,1.8s-1.2,0.9-1.8,1.1s-1.1,0.5-1.7,0.6s-1,0.2-1.5,0.2c-0.2,0-0.4-0.1-0.7-0.2
			s-0.5-0.3-0.7-0.6s-0.4-0.5-0.6-0.7s-0.2-0.4-0.2-0.6c0-0.6,0.1-1.2,0.3-1.8s0.4-1,0.7-1.4s0.6-0.8,1-1.1s0.8-0.6,1.2-0.8
			s0.8-0.4,1.2-0.5s0.8-0.2,1.1-0.2c0.2,0,0.5,0.1,0.7,0.2s0.5,0.3,0.7,0.5s0.4,0.4,0.5,0.6s0.2,0.4,0.2,0.6c0,0.3-0.1,0.5-0.3,0.8
			s-0.5,0.6-0.9,0.8s-0.9,0.6-1.5,0.9s-1.2,0.6-1.9,0.9c0,0.2,0,0.4,0,0.6c0,0.2,0.1,0.4,0.2,0.5s0.3,0.1,0.6,0.1
			c0.5,0,1-0.1,1.5-0.3s0.9-0.4,1.3-0.7s0.8-0.6,1.2-0.9s0.8-0.7,1.2-1.1L143.2,149z M139,146.1c-0.2,0-0.3,0.1-0.5,0.3
			s-0.4,0.4-0.6,0.7s-0.4,0.6-0.5,0.9s-0.3,0.7-0.4,1.1c0.3-0.2,0.6-0.4,0.8-0.6s0.5-0.4,0.7-0.7s0.4-0.5,0.5-0.7s0.2-0.5,0.2-0.7
			c0-0.1,0-0.1-0.1-0.2S139.1,146.1,139,146.1z"/>
	</g>
</g>
</svg>
