<?xml version="1.0" encoding="utf-8"?>
<!-- Generator: Adobe Illustrator 22.1.0, SVG Export Plug-In . SVG Version: 6.00 Build 0)  -->
<svg version="1.1" id="Layer_1" xmlns="http://www.w3.org/2000/svg" xmlns:xlink="http://www.w3.org/1999/xlink" x="0px" y="0px"
	 viewBox="0 0 35 35" style="enable-background:new 0 0 35 35;" xml:space="preserve">
<style type="text/css">
	.st0{fill:#27999C;}
	.st1{fill:none;stroke:#3FFFAB;stroke-width:2;stroke-linejoin:round;stroke-miterlimit:10;}
</style>
<path class="st0" d="M-7.3,24.6L-18.2,3c-0.2-0.3-0.5-0.5-0.9-0.5c-0.4,0-0.7,0.2-0.9,0.5l-11.4,21.6c-0.2,0.3-0.2,0.7,0,1
	c0.2,0.3,0.5,0.5,0.9,0.5h6.9l4.4,8.4l4.2-8.4h6.9c0.3,0,0.7-0.2,0.9-0.5C-7.1,25.3-7.1,25-7.3,24.6z M-15.1,24.1l-4.1-8.1l-4.3,8.1
	h-5.3l9.7-18.4l9.3,18.4H-15.1z"/>
<polygon class="st1" points="49.4,11 38,24.3 60.4,24.3 "/>
<path class="st0" d="M29.5,22.2L18.6,6.8c-0.2-0.3-0.5-0.4-0.8-0.4c-0.3,0-0.6,0.1-0.8,0.4L5.5,22.2c-0.2,0.3-0.3,0.7-0.1,1
	c0.2,0.3,0.5,0.6,0.9,0.6h7.2l4.1,4.8l3.9-4.8h7.2c0.4,0,0.7-0.2,0.9-0.5C29.7,22.9,29.7,22.5,29.5,22.2z M21.4,21.8l-3.8-4.6
	l-4,4.6H8.3l9.4-12.6l9,12.6H21.4z"/>
</svg>
