<?xml version="1.0" encoding="utf-8"?>
<!-- Generator: Adobe Illustrator 22.1.0, SVG Export Plug-In . SVG Version: 6.00 Build 0)  -->
<svg version="1.1" id="Layer_1" xmlns="http://www.w3.org/2000/svg" xmlns:xlink="http://www.w3.org/1999/xlink" x="0px" y="0px"
	 viewBox="0 0 35 35" style="enable-background:new 0 0 35 35;" xml:space="preserve">
<style type="text/css">
	.st0{fill:#27999C;}
</style>
<path class="st0" d="M34.9,11.2c-0.2-0.5-0.8-0.8-1.3-0.6l-9,3.3L22.4,11l-4.5,5.3l-0.6,0.2L12.9,11l-5.5,6.5l1.7,2l-8.4,3
	c-0.5,0.2-0.8,0.8-0.6,1.3c0.1,0.4,0.5,0.7,0.9,0.7c0.1,0,0.2,0,0.3-0.1l9.1-3.3l2.5,2.9l4.4-5.4l0.5-0.2l4.7,5.6l5.3-6.6l-1.7-2
	l8.4-3C34.9,12.2,35.1,11.7,34.9,11.2z"/>
</svg>
