<?xml version="1.0" encoding="utf-8"?>
<!-- Generator: Adobe Illustrator 22.1.0, SVG Export Plug-In . SVG Version: 6.00 Build 0)  -->
<svg version="1.1" id="Layer_1" xmlns="http://www.w3.org/2000/svg" xmlns:xlink="http://www.w3.org/1999/xlink" x="0px" y="0px"
	 viewBox="0 0 35 35" style="enable-background:new 0 0 35 35;" xml:space="preserve">
<style type="text/css">
	.st0{fill:#27999C;}
</style>
<path class="st0" d="M-19,20.1h-5l-6-15.3l-6,15.3h-5.2c-0.6,0-1,0.4-1,1s0.4,1,1,1H-19c0.6,0,1-0.4,1-1S-18.4,20.1-19,20.1z"/>
<g>
	<path class="st0" d="M-29.7,28.7c-0.6,0-1-0.4-1-1V14.3c0-0.6,0.4-1,1-1c0.6,0,1,0.4,1,1v13.4C-28.7,28.3-29.2,28.7-29.7,28.7z"/>
</g>
<path class="st0" d="M66,5.5L55.8,17.4L66,29.5l9.7-12.1L66,5.5z M72.4,19h-5.1v5.1c0,0.9-0.7,1.5-1.5,1.5c-0.9,0-1.5-0.7-1.5-1.5
	V19h-5.1c-0.9,0-1.5-0.7-1.5-1.5c0-0.9,0.7-1.5,1.5-1.5h5.1v-5.1c0-0.9,0.7-1.5,1.5-1.5c0.9,0,1.5,0.7,1.5,1.5v5.1h5.1
	c0.9,0,1.5,0.7,1.5,1.5C74,18.3,73.3,19,72.4,19z"/>
<g>
	<polygon class="st0" points="18.8,6.9 18.8,16.1 26.4,16.1 	"/>
	<polygon class="st0" points="16.2,7.3 8.7,16.1 16.2,16.1 	"/>
	<polygon class="st0" points="16.2,18.7 8.6,18.7 16.2,27.7 	"/>
	<polygon class="st0" points="18.8,18.7 18.8,28.1 26.4,18.7 	"/>
</g>
</svg>
